<svg width="512" height="512" viewBox="0 0 512 512" xmlns="http://www.w3.org/2000/svg">
  <defs>
    <clipPath id="circleClip">
      <circle cx="256" cy="256" r="256" />
    </clipPath>
    
    <linearGradient id="goldGradient" x1="0%" y1="0%" x2="100%" y2="100%">
      <stop offset="0%" style="stop-color:#FFECB3;stop-opacity:1" />
      <stop offset="50%" style="stop-color:#FFC107;stop-opacity:1" />
      <stop offset="100%" style="stop-color:#FFA000;stop-opacity:1" />
    </linearGradient>
    
    <linearGradient id="sunGradient" x1="0%" y1="0%" x2="0%" y2="100%">
      <stop offset="0%" style="stop-color:#FFEB3B;stop-opacity:1" />
      <stop offset="100%" style="stop-color:#FBC02D;stop-opacity:1" />
    </linearGradient>
  </defs>

  <g clip-path="url(#circleClip)">
    <rect width="512" height="512" fill="white"/>
    
    <circle cx="256" cy="230" r="160" fill="url(#sunGradient)" />

    <g transform="translate(115, 90)">
      
      <rect x="45" y="325" width="70" height="20" fill="#5D4037" rx="2" stroke="#3E2723" stroke-width="2"/>

      <path d="M45,230 Q20,250 35,300 L50,325 L65,325 L75,260 L85,260 L95,325 L110,325 L125,300 Q140,250 115,230 Z" fill="#1565C0"/>
      <path d="M75,230 L75,300 M85,230 L85,300" stroke="#0D47A1" stroke-width="2" fill="none"/>

      <path d="M40,230 L35,140 L125,140 L120,230 Z" fill="#C62828"/>

      <path d="M45,145 Q80,180 115,145" fill="none" stroke="#FDD835" stroke-width="12" stroke-linecap="round"/>
      <path d="M35,150 Q20,200 25,260 L45,250 Q40,200 45,150" fill="#FDD835"/>
      <path d="M125,150 Q140,200 135,260 L115,250 Q120,200 115,150" fill="#FDD835"/>

      <path d="M35,140 C10,150 10,190 35,200" fill="none" stroke="#C62828" stroke-width="20" stroke-linecap="round"/>
      <path d="M125,140 C150,150 150,190 125,200" fill="none" stroke="#C62828" stroke-width="20" stroke-linecap="round"/>

      <circle cx="35" cy="205" r="10" fill="#1A1A1A"/>
      <circle cx="125" cy="205" r="10" fill="#1A1A1A"/>

      <rect x="60" y="125" width="40" height="20" fill="#1A1A1A"/>

      <path d="M50,70 L110,70 L110,130 L50,130 Z" fill="#1A1A1A"/>

      <path d="M55,70 L105,70 L100,25 C95,10 65,10 60,25 Z" fill="url(#goldGradient)"/>
      <rect x="55" y="65" width="50" height="8" fill="#D32F2F"/>

      <path d="M50,90 L30,85 L30,115 L50,110 Z" fill="url(#goldGradient)"/>
      <path d="M110,90 L130,85 L130,115 L110,110 Z" fill="url(#goldGradient)"/>

      <ellipse cx="65" cy="95" rx="8" ry="5" fill="white"/>
      <circle cx="65" cy="95" r="2.5" fill="black"/>
      <ellipse cx="95" cy="95" rx="8" ry="5" fill="white"/>
      <circle cx="95" cy="95" r="2.5" fill="black"/>
      
      <rect x="78" y="75" width="4" height="20" fill="#FFC107"/>
      <circle cx="80" cy="95" r="2" fill="red"/>
      
      <circle cx="80" cy="155" r="6" fill="#E91E63" stroke="gold" stroke-width="2"/>
    </g>

    <g transform="translate(280, 100)">
      
      <path d="M35,230 Q15,250 25,300 L40,325 L80,325 L95,300 Q105,250 85,230 Z" fill="#2E7D32"/>
      <path d="M40,325 L80,325 L80,315 L40,315 Z" fill="#C62828"/>
      <path d="M60,230 L60,325" stroke="#1B5E20" stroke-width="1"/>

      <path d="M35,230 L30,140 L90,140 L85,230 Z" fill="#2E7D32"/>
      
      <path d="M30,230 L90,140 L95,160 L45,240 Z" fill="#43A047"/>

      <path d="M30,140 C10,150 10,190 30,200" fill="none" stroke="#2E7D32" stroke-width="18" stroke-linecap="round"/>
      <path d="M90,140 C110,150 110,190 90,200" fill="none" stroke="#2E7D32" stroke-width="18" stroke-linecap="round"/>

      <circle cx="30" cy="205" r="8" fill="#1A1A1A"/>
      <circle cx="90" cy="205" r="8" fill="#1A1A1A"/>

      <rect x="50" y="125" width="20" height="15" fill="#1A1A1A"/>
      
      <circle cx="60" cy="95" r="30" fill="#1A1A1A"/>

      <path d="M35,75 L85,75 L80,35 Q60,25 40,35 Z" fill="url(#goldGradient)"/>
      <path d="M30,75 L90,75 L90,80 L30,80 Z" fill="#C62828"/>

      <path d="M40,135 Q60,160 80,135" fill="none" stroke="url(#goldGradient)" stroke-width="4"/>
      
      <ellipse cx="48" cy="95" rx="6" ry="4" fill="white"/>
      <circle cx="48" cy="95" r="2" fill="black"/>
      <ellipse cx="72" cy="95" rx="6" ry="4" fill="white"/>
      <circle cx="72" cy="95" r="2" fill="black"/>

      <circle cx="60" cy="78" r="4" fill="#D32F2F"/>
      
      <circle cx="68" cy="105" r="5" fill="none" stroke="gold" stroke-width="1.5"/>
      <circle cx="72" cy="105" r="2" fill="#E91E63"/> </g>

    <text x="256" y="450" font-family="'Noto Sans', Arial, sans-serif" font-weight="900" font-size="44" fill="#3E2723" text-anchor="middle" letter-spacing="2">|| रामकृष्णहरी ||</text>
  </g>
  
  <circle cx="256" cy="256" r="248" fill="none" stroke="#424242" stroke-width="6"/>
</svg>